<svg width="351" height="89" viewBox="0 0 351 89" fill="none" xmlns="http://www.w3.org/2000/svg">
<path d="M28.224 26.272C25.1093 24.9493 22.016 24.288 18.944 24.288C12.7147 24.288 9.6 26.592 9.6 31.2C9.6 33.2053 10.304 35.0827 11.712 36.832C13.12 38.5387 14.8267 40.0747 16.832 41.44C18.8373 42.7627 20.8427 44.128 22.848 45.536C24.8533 46.944 26.56 48.6293 27.968 50.592C29.376 52.5547 30.08 54.688 30.08 56.992C30.08 60.8747 28.7787 63.8187 26.176 65.824C23.5733 67.7867 19.968 68.768 15.36 68.768C10.7947 68.768 6.89067 67.5947 3.648 65.248L5.184 62.944C8.256 64.9493 11.6267 65.952 15.296 65.952C18.9653 65.952 21.7813 65.2267 23.744 63.776C25.7067 62.2827 26.688 60.1493 26.688 57.376C26.688 55.456 25.984 53.6427 24.576 51.936C23.168 50.1867 21.4613 48.6293 19.456 47.264C17.4507 45.856 15.4453 44.4267 13.44 42.976C11.4347 41.5253 9.728 39.7973 8.32 37.792C6.912 35.7867 6.208 33.632 6.208 31.328C6.208 28.2987 7.31733 25.9093 9.536 24.16C11.7973 22.368 14.8267 21.472 18.624 21.472C22.464 21.472 26.0267 22.24 29.312 23.776L28.224 26.272ZM48.5415 29.088H34.4615V26.464H65.5015V29.088H51.4215V68H48.5415V29.088ZM91.1105 68.64C85.1798 68.64 80.2092 66.5707 76.1985 62.432C72.1878 58.2933 70.1825 53.2373 70.1825 47.264C70.1825 41.248 72.1878 36.1707 76.1985 32.032C80.2092 27.8933 85.1798 25.824 91.1105 25.824C97.0412 25.824 102.012 27.8933 106.023 32.032C110.033 36.1707 112.039 41.248 112.039 47.264C112.039 53.2373 110.033 58.2933 106.023 62.432C102.012 66.5707 97.0412 68.64 91.1105 68.64ZM91.1105 28.448C85.9905 28.448 81.7238 30.2613 78.3105 33.888C74.9398 37.5147 73.2545 41.9733 73.2545 47.264C73.2545 52.512 74.9398 56.9493 78.3105 60.576C81.7238 64.16 85.9905 65.952 91.1105 65.952C96.2732 65.952 100.54 64.16 103.911 60.576C107.281 56.9493 108.967 52.512 108.967 47.264C108.967 41.9733 107.281 37.5147 103.911 33.888C100.54 30.2613 96.2732 28.448 91.1105 28.448ZM157.188 65.952C153.988 67.744 149.529 68.64 143.812 68.64C138.137 68.64 133.124 66.592 128.772 62.496C124.462 58.4 122.308 53.3227 122.308 47.264C122.308 41.1627 124.185 36.064 127.94 31.968C131.737 27.872 136.622 25.824 142.596 25.824C147.417 25.824 152.132 26.5707 156.74 28.064L155.972 30.496C151.534 29.1307 146.948 28.448 142.212 28.448C137.476 28.448 133.486 30.2613 130.244 33.888C127.044 37.472 125.444 41.888 125.444 47.136C125.444 52.3413 127.3 56.7787 131.012 60.448C134.766 64.1173 139.097 65.952 144.004 65.952C148.91 65.952 152.985 65.2693 156.228 63.904L157.188 65.952ZM192.896 26.464L175.168 46.496C182.165 54.9867 186.944 60.3627 189.504 62.624C192.107 64.8853 194.688 66.1653 197.248 66.464L197.184 68.448C194.795 68.4053 192.853 68.064 191.36 67.424C189.867 66.7413 188.544 65.8453 187.392 64.736C186.24 63.6267 183.765 60.9173 179.968 56.608C176.213 52.256 173.397 48.928 171.52 46.624L189.376 26.464H192.896ZM170.624 26.464V68H167.68V26.464H170.624Z" fill="black"/>
<path d="M207.642 29.536L207.77 34.976V68H204.698V21.856H206.106L236.25 56.608C238.298 59.04 239.877 60.9813 240.986 62.432C240.815 60.384 240.73 58.0373 240.73 55.392V22.24H243.802V68.384H242.394L211.674 32.992C209.541 30.56 208.175 28.9387 207.578 28.128L207.642 29.536ZM259.93 68V26.464H279.322V29.024H262.874V44.128H277.722V46.624H262.874V65.312H279.962V68H259.93ZM300.127 28.256C297.823 28.256 295.945 28.8107 294.495 29.92C293.044 31.0293 292.319 32.5867 292.319 34.592C292.319 36.896 293.279 38.9653 295.199 40.8C296.564 42.1227 298.313 43.5307 300.447 45.024C302.623 46.4747 304.116 47.52 304.927 48.16C305.737 48.8 306.719 49.6747 307.871 50.784C309.961 52.8747 311.007 55.2853 311.007 58.016C311.007 61.5573 309.812 64.2453 307.423 66.08C305.076 67.872 301.769 68.768 297.503 68.768C293.279 68.768 289.737 67.6587 286.879 65.44L288.415 63.2C291.316 65.1627 294.388 66.144 297.631 66.144C300.873 66.144 303.391 65.4613 305.183 64.096C307.017 62.7307 307.935 60.8107 307.935 58.336C307.935 56.2027 307.017 54.24 305.183 52.448C303.903 51.168 302.175 49.7813 299.999 48.288C297.865 46.7947 296.372 45.728 295.519 45.088C294.665 44.4053 293.663 43.5093 292.51 42.4C290.334 40.224 289.247 37.7067 289.247 34.848C289.247 31.9893 290.249 29.7493 292.255 28.128C294.303 26.5067 297.119 25.696 300.703 25.696C304.287 25.696 307.508 26.4 310.367 27.808L309.279 30.176C306.633 28.896 303.583 28.256 300.127 28.256ZM330.229 29.088H316.149V26.464H347.189V29.088H333.109V68H330.229V29.088Z" fill="#04B4FC"/>
</svg>
