<svg width="50" height="30" viewBox="0 0 50 30" fill="none" xmlns="http://www.w3.org/2000/svg">
<path d="M15.36 3.00008C13.4133 2.17341 11.48 1.76008 9.55997 1.76008C5.66664 1.76008 3.71997 3.20008 3.71997 6.08008C3.71997 7.33341 4.15997 8.50674 5.03997 9.60008C5.91997 10.6667 6.98664 11.6267 8.23997 12.4801C9.4933 13.3067 10.7466 14.1601 12 15.0401C13.2533 15.9201 14.32 16.9734 15.2 18.2001C16.08 19.4267 16.52 20.7601 16.52 22.2001C16.52 24.6267 15.7066 26.4667 14.08 27.7201C12.4533 28.9467 10.2 29.5601 7.31997 29.5601C4.46664 29.5601 2.02664 28.8267 -2.91467e-05 27.3601L0.959971 25.9201C2.87997 27.1734 4.98664 27.8001 7.27997 27.8001C9.5733 27.8001 11.3333 27.3467 12.56 26.4401C13.7866 25.5067 14.4 24.1734 14.4 22.4401C14.4 21.2401 13.96 20.1067 13.08 19.0401C12.2 17.9467 11.1333 16.9734 9.87997 16.1201C8.62664 15.2401 7.3733 14.3467 6.11997 13.4401C4.86664 12.5334 3.79997 11.4534 2.91997 10.2001C2.03997 8.94674 1.59997 7.60008 1.59997 6.16008C1.59997 4.26674 2.2933 2.77341 3.67997 1.68008C5.0933 0.560076 6.98664 7.58171e-05 9.35997 7.58171e-05C11.76 7.58171e-05 13.9866 0.480076 16.04 1.44008L15.36 3.00008Z" fill="#E2940C"/>
<path d="M26.715 5.04008L26.795 8.44008V29.0801H24.875V0.240077H25.755L44.595 21.9601C45.875 23.4801 46.8616 24.6934 47.555 25.6001C47.4483 24.3201 47.395 22.8534 47.395 21.2001V0.480077H49.315V29.3201H48.435L29.235 7.20008C27.9016 5.68008 27.0483 4.66674 26.675 4.16008L26.715 5.04008Z" fill="#04B4FC"/>
</svg>
