<svg width="79" height="48" viewBox="0 0 79 48" fill="none" xmlns="http://www.w3.org/2000/svg">
<path d="M24.5761 4.80008C21.4614 3.47741 18.3681 2.81607 15.2961 2.81607C9.06672 2.81607 5.95205 5.12007 5.95205 9.72807C5.95205 11.7334 6.65605 13.6107 8.06405 15.3601C9.47205 17.0667 11.1787 18.6027 13.1841 19.9681C15.1894 21.2907 17.1947 22.6561 19.2001 24.0641C21.2054 25.4721 22.9121 27.1574 24.3201 29.1201C25.7281 31.0827 26.4321 33.2161 26.4321 35.5201C26.4321 39.4027 25.1307 42.3467 22.5281 44.3521C19.9254 46.3147 16.3201 47.2961 11.7121 47.2961C7.14672 47.2961 3.24272 46.1227 5.10216e-05 43.7761L1.53605 41.4721C4.60805 43.4774 7.97872 44.4801 11.6481 44.4801C15.3174 44.4801 18.1334 43.7547 20.0961 42.3041C22.0587 40.8107 23.0401 38.6774 23.0401 35.9041C23.0401 33.9841 22.3361 32.1707 20.9281 30.4641C19.5201 28.7147 17.8134 27.1574 15.8081 25.7921C13.8027 24.3841 11.7974 22.9547 9.79205 21.5041C7.78672 20.0534 6.08005 18.3254 4.67205 16.3201C3.26405 14.3147 2.56005 12.1601 2.56005 9.85608C2.56005 6.82674 3.66938 4.43741 5.88805 2.68807C8.14938 0.896072 11.1787 7.24792e-05 14.9761 7.24792e-05C18.8161 7.24792e-05 22.3787 0.768073 25.6641 2.30407L24.5761 4.80008Z" fill="black"/>
<path d="M42.7441 8.06408L42.8721 13.5041V46.5281H39.8001V0.384075H41.2081L71.3521 35.1361C73.4001 37.5681 74.9787 39.5094 76.0881 40.9601C75.9174 38.9121 75.8321 36.5654 75.8321 33.9201V0.768074H78.9041V46.9121H77.4961L46.7761 11.5201C44.6427 9.08807 43.2774 7.46674 42.6801 6.65607L42.7441 8.06408Z" fill="#04B4FC"/>
</svg>
