<svg width="459" height="141" viewBox="0 0 459 141" fill="none" xmlns="http://www.w3.org/2000/svg">
<rect width="459" height="141" fill="white"/>
<path d="M83.224 48.272C80.1093 46.9493 77.016 46.288 73.944 46.288C67.7147 46.288 64.6 48.592 64.6 53.2C64.6 55.2053 65.304 57.0827 66.712 58.832C68.12 60.5387 69.8267 62.0747 71.832 63.44C73.8373 64.7627 75.8427 66.128 77.848 67.536C79.8533 68.944 81.56 70.6293 82.968 72.592C84.376 74.5547 85.08 76.688 85.08 78.992C85.08 82.8747 83.7787 85.8187 81.176 87.824C78.5733 89.7867 74.968 90.768 70.36 90.768C65.7947 90.768 61.8907 89.5947 58.648 87.248L60.184 84.944C63.256 86.9493 66.6267 87.952 70.296 87.952C73.9653 87.952 76.7813 87.2267 78.744 85.776C80.7067 84.2827 81.688 82.1493 81.688 79.376C81.688 77.456 80.984 75.6427 79.576 73.936C78.168 72.1867 76.4613 70.6293 74.456 69.264C72.4507 67.856 70.4453 66.4267 68.44 64.976C66.4347 63.5253 64.728 61.7973 63.32 59.792C61.912 57.7867 61.208 55.632 61.208 53.328C61.208 50.2987 62.3173 47.9093 64.536 46.16C66.7973 44.368 69.8267 43.472 73.624 43.472C77.464 43.472 81.0267 44.24 84.312 45.776L83.224 48.272ZM103.542 51.088H89.4615V48.464H120.502V51.088H106.422V90H103.542V51.088ZM146.111 90.64C140.18 90.64 135.209 88.5707 131.199 84.432C127.188 80.2933 125.183 75.2373 125.183 69.264C125.183 63.248 127.188 58.1707 131.199 54.032C135.209 49.8933 140.18 47.824 146.111 47.824C152.041 47.824 157.012 49.8933 161.023 54.032C165.033 58.1707 167.039 63.248 167.039 69.264C167.039 75.2373 165.033 80.2933 161.023 84.432C157.012 88.5707 152.041 90.64 146.111 90.64ZM146.111 50.448C140.991 50.448 136.724 52.2613 133.311 55.888C129.94 59.5147 128.255 63.9733 128.255 69.264C128.255 74.512 129.94 78.9493 133.311 82.576C136.724 86.16 140.991 87.952 146.111 87.952C151.273 87.952 155.54 86.16 158.911 82.576C162.281 78.9493 163.967 74.512 163.967 69.264C163.967 63.9733 162.281 59.5147 158.911 55.888C155.54 52.2613 151.273 50.448 146.111 50.448ZM212.188 87.952C208.988 89.744 204.529 90.64 198.812 90.64C193.137 90.64 188.124 88.592 183.772 84.496C179.462 80.4 177.308 75.3227 177.308 69.264C177.308 63.1627 179.185 58.064 182.94 53.968C186.737 49.872 191.622 47.824 197.596 47.824C202.417 47.824 207.132 48.5707 211.74 50.064L210.972 52.496C206.534 51.1307 201.948 50.448 197.212 50.448C192.476 50.448 188.486 52.2613 185.244 55.888C182.044 59.472 180.444 63.888 180.444 69.136C180.444 74.3413 182.3 78.7787 186.012 82.448C189.766 86.1173 194.097 87.952 199.004 87.952C203.91 87.952 207.985 87.2693 211.228 85.904L212.188 87.952ZM247.896 48.464L230.168 68.496C237.165 76.9867 241.944 82.3627 244.504 84.624C247.107 86.8853 249.688 88.1653 252.248 88.464L252.184 90.448C249.795 90.4053 247.853 90.064 246.36 89.424C244.867 88.7413 243.544 87.8453 242.392 86.736C241.24 85.6267 238.765 82.9173 234.968 78.608C231.213 74.256 228.397 70.928 226.52 68.624L244.376 48.464H247.896ZM225.624 48.464V90H222.68V48.464H225.624Z" fill="black"/>
<path d="M262.642 51.536L262.77 56.976V90H259.698V43.856H261.106L291.25 78.608C293.298 81.04 294.877 82.9813 295.986 84.432C295.815 82.384 295.73 80.0373 295.73 77.392V44.24H298.802V90.384H297.394L266.674 54.992C264.541 52.56 263.175 50.9387 262.578 50.128L262.642 51.536ZM314.93 90V48.464H334.322V51.024H317.874V66.128H332.722V68.624H317.874V87.312H334.962V90H314.93ZM355.127 50.256C352.823 50.256 350.945 50.8107 349.495 51.92C348.044 53.0293 347.319 54.5867 347.319 56.592C347.319 58.896 348.279 60.9653 350.199 62.8C351.564 64.1227 353.313 65.5307 355.447 67.024C357.623 68.4747 359.116 69.52 359.927 70.16C360.737 70.8 361.719 71.6747 362.871 72.784C364.961 74.8747 366.007 77.2853 366.007 80.016C366.007 83.5573 364.812 86.2453 362.423 88.08C360.076 89.872 356.769 90.768 352.503 90.768C348.279 90.768 344.737 89.6587 341.879 87.44L343.415 85.2C346.316 87.1627 349.388 88.144 352.631 88.144C355.873 88.144 358.391 87.4613 360.183 86.096C362.017 84.7307 362.935 82.8107 362.935 80.336C362.935 78.2027 362.017 76.24 360.183 74.448C358.903 73.168 357.175 71.7813 354.999 70.288C352.865 68.7947 351.372 67.728 350.519 67.088C349.665 66.4053 348.663 65.5093 347.51 64.4C345.334 62.224 344.247 59.7067 344.247 56.848C344.247 53.9893 345.249 51.7493 347.255 50.128C349.303 48.5067 352.119 47.696 355.703 47.696C359.287 47.696 362.508 48.4 365.367 49.808L364.279 52.176C361.633 50.896 358.583 50.256 355.127 50.256ZM385.229 51.088H371.149V48.464H402.189V51.088H388.109V90H385.229V51.088Z" fill="#04B4FC"/>
</svg>
