<svg width="215" height="30" viewBox="0 0 215 30" fill="none" xmlns="http://www.w3.org/2000/svg">
<path d="M15.36 3.00008C13.4133 2.17341 11.48 1.76008 9.55997 1.76008C5.66664 1.76008 3.71997 3.20008 3.71997 6.08008C3.71997 7.33341 4.15997 8.50674 5.03997 9.60008C5.91997 10.6667 6.98664 11.6267 8.23997 12.4801C9.4933 13.3067 10.7466 14.1601 12 15.0401C13.2533 15.9201 14.32 16.9734 15.2 18.2001C16.08 19.4267 16.52 20.7601 16.52 22.2001C16.52 24.6267 15.7066 26.4667 14.08 27.7201C12.4533 28.9467 10.2 29.5601 7.31997 29.5601C4.46664 29.5601 2.02664 28.8267 -2.91467e-05 27.3601L0.959971 25.9201C2.87997 27.1734 4.98664 27.8001 7.27997 27.8001C9.5733 27.8001 11.3333 27.3467 12.56 26.4401C13.7866 25.5067 14.4 24.1734 14.4 22.4401C14.4 21.2401 13.96 20.1067 13.08 19.0401C12.2 17.9467 11.1333 16.9734 9.87997 16.1201C8.62664 15.2401 7.3733 14.3467 6.11997 13.4401C4.86664 12.5334 3.79997 11.4534 2.91997 10.2001C2.03997 8.94674 1.59997 7.60008 1.59997 6.16008C1.59997 4.26674 2.2933 2.77341 3.67997 1.68008C5.0933 0.560076 6.98664 7.58171e-05 9.35997 7.58171e-05C11.76 7.58171e-05 13.9866 0.480076 16.04 1.44008L15.36 3.00008ZM28.0584 4.76008H19.2584V3.12008H38.6584V4.76008H29.8584V29.0801H28.0584V4.76008ZM54.664 29.4801C50.9574 29.4801 47.8507 28.1867 45.344 25.6001C42.8374 23.0134 41.584 19.8534 41.584 16.1201C41.584 12.3601 42.8374 9.18674 45.344 6.60008C47.8507 4.01341 50.9574 2.72008 54.664 2.72008C58.3707 2.72008 61.4774 4.01341 63.984 6.60008C66.4907 9.18674 67.744 12.3601 67.744 16.1201C67.744 19.8534 66.4907 23.0134 63.984 25.6001C61.4774 28.1867 58.3707 29.4801 54.664 29.4801ZM54.664 4.36008C51.464 4.36008 48.7974 5.49341 46.664 7.76008C44.5574 10.0267 43.504 12.8134 43.504 16.1201C43.504 19.4001 44.5574 22.1734 46.664 24.4401C48.7974 26.6801 51.464 27.8001 54.664 27.8001C57.8907 27.8001 60.5574 26.6801 62.664 24.4401C64.7707 22.1734 65.824 19.4001 65.824 16.1201C65.824 12.8134 64.7707 10.0267 62.664 7.76008C60.5574 5.49341 57.8907 4.36008 54.664 4.36008ZM95.9622 27.8001C93.9622 28.9201 91.1755 29.4801 87.6022 29.4801C84.0555 29.4801 80.9222 28.2001 78.2022 25.6401C75.5088 23.0801 74.1622 19.9067 74.1622 16.1201C74.1622 12.3067 75.3355 9.12008 77.6822 6.56008C80.0555 4.00008 83.1088 2.72008 86.8422 2.72008C89.8555 2.72008 92.8022 3.18674 95.6822 4.12008L95.2022 5.64008C92.4288 4.78674 89.5622 4.36008 86.6022 4.36008C83.6422 4.36008 81.1488 5.49341 79.1222 7.76008C77.1222 10.0001 76.1222 12.7601 76.1222 16.0401C76.1222 19.2934 77.2822 22.0667 79.6022 24.3601C81.9488 26.6534 84.6555 27.8001 87.7222 27.8001C90.7888 27.8001 93.3355 27.3734 95.3622 26.5201L95.9622 27.8001ZM118.28 3.12008L107.2 15.6401C111.573 20.9467 114.56 24.3067 116.16 25.7201C117.787 27.1334 119.4 27.9334 121 28.1201L120.96 29.3601C119.467 29.3334 118.253 29.1201 117.32 28.7201C116.387 28.2934 115.56 27.7334 114.84 27.0401C114.12 26.3467 112.573 24.6534 110.2 21.9601C107.853 19.2401 106.093 17.1601 104.92 15.7201L116.08 3.12008H118.28ZM104.36 3.12008V29.0801H102.52V3.12008H104.36Z" fill="#E2940C"/>
<path d="M127.496 5.04008L127.576 8.44008V29.0801H125.656V0.240077H126.536L145.376 21.9601C146.656 23.4801 147.643 24.6934 148.336 25.6001C148.23 24.3201 148.176 22.8534 148.176 21.2001V0.480077H150.096V29.3201H149.216L130.016 7.20008C128.683 5.68008 127.83 4.66674 127.456 4.16008L127.496 5.04008ZM160.176 29.0801V3.12008H172.296V4.72008H162.016V14.1601H171.296V15.7201H162.016V27.4001H172.696V29.0801H160.176ZM185.299 4.24008C183.859 4.24008 182.686 4.58674 181.779 5.28008C180.872 5.97341 180.419 6.94674 180.419 8.20008C180.419 9.64008 181.019 10.9334 182.219 12.0801C183.072 12.9067 184.166 13.7867 185.499 14.7201C186.859 15.6267 187.792 16.2801 188.299 16.6801C188.806 17.0801 189.419 17.6267 190.139 18.3201C191.446 19.6267 192.099 21.1334 192.099 22.8401C192.099 25.0534 191.352 26.7334 189.859 27.8801C188.392 29.0001 186.326 29.5601 183.659 29.5601C181.019 29.5601 178.806 28.8667 177.019 27.4801L177.979 26.0801C179.792 27.3067 181.712 27.9201 183.739 27.9201C185.766 27.9201 187.339 27.4934 188.459 26.6401C189.606 25.7867 190.179 24.5867 190.179 23.0401C190.179 21.7067 189.606 20.4801 188.459 19.3601C187.659 18.5601 186.579 17.6934 185.219 16.7601C183.886 15.8267 182.952 15.1601 182.419 14.7601C181.886 14.3334 181.259 13.7734 180.539 13.0801C179.179 11.7201 178.499 10.1467 178.499 8.36008C178.499 6.57341 179.126 5.17341 180.379 4.16008C181.659 3.14674 183.419 2.64008 185.659 2.64008C187.899 2.64008 189.912 3.08008 191.699 3.96008L191.019 5.44008C189.366 4.64008 187.459 4.24008 185.299 4.24008ZM204.113 4.76008H195.313V3.12008H214.713V4.76008H205.913V29.0801H204.113V4.76008Z" fill="#04B4FC"/>
</svg>
